<svg width="24" height="24" viewBox="0 0 24 24" fill="none" xmlns="http://www.w3.org/2000/svg">
<path d="M19 7.79708C19 6.81891 19 6.32952 18.8094 5.95554C18.6417 5.62625 18.3736 5.35852 18.0443 5.19074C17.67 5 17.1803 5 16.2002 5H7.80017C6.82008 5 6.32967 5 5.95532 5.19074C5.62604 5.35852 5.35852 5.62625 5.19074 5.95554C5 6.32988 5 6.81987 5 7.79996V16.2C5 17.18 5 17.6702 5.19074 18.0445C5.35852 18.3738 5.62604 18.6415 5.95532 18.8092C6.32967 19 6.82008 19 7.80017 19H16.2002C17.1803 19 17.67 19 18.0443 18.8092C18.3736 18.6415 18.6417 18.3738 18.8094 18.0445C19 17.6705 19 17.181 19 16.2028V7.79708Z" stroke="white" stroke-width="1.5" stroke-linecap="round" stroke-linejoin="round"/>
<path fill-rule="evenodd" clip-rule="evenodd" d="M13.925 8.14613C14.2405 8.14613 14.5555 8.18692 14.855 8.27905C16.7005 8.82905 17.3655 10.6853 16.81 12.3078C16.495 13.1369 15.98 13.8936 15.3055 14.5119C14.34 15.369 13.2805 16.1298 12.14 16.7853L12.015 16.8545L11.885 16.7807C10.7405 16.1298 9.67501 15.369 8.70051 14.5073C8.03051 13.889 7.51501 13.1369 7.19501 12.3078C6.63001 10.6853 7.29501 8.82905 9.16051 8.26942C9.30551 8.22359 9.45501 8.19151 9.60501 8.17363H9.66501C9.80551 8.15484 9.94501 8.14613 10.085 8.14613H10.14C10.455 8.15484 10.76 8.20526 11.0555 8.29738H11.085C11.105 8.30609 11.12 8.31571 11.13 8.32442C11.2405 8.35696 11.345 8.39363 11.445 8.44405L11.635 8.52196C11.6809 8.54441 11.7325 8.57871 11.777 8.60835C11.8052 8.62713 11.8306 8.64404 11.85 8.65488C11.8582 8.65929 11.8665 8.66373 11.8748 8.6682C11.9177 8.69114 11.9624 8.71504 12 8.74151C12.5555 8.35238 13.23 8.14155 13.925 8.14613ZM15.255 11.4461C15.46 11.4411 15.635 11.2903 15.65 11.0973V11.0428C15.665 10.4007 15.2405 9.81905 14.595 9.59446C14.39 9.52984 14.165 9.63113 14.09 9.82363C14.02 10.0161 14.13 10.227 14.34 10.2953C14.6605 10.4053 14.875 10.6945 14.875 11.0148V11.029C14.8655 11.134 14.9 11.2353 14.97 11.3132C15.04 11.3911 15.145 11.4365 15.255 11.4461Z" fill="white"/>
</svg>
