<svg width="18" height="19" viewBox="0 0 18 19" fill="none" xmlns="http://www.w3.org/2000/svg">
<path d="M3.00359 8.76446C2.96719 8.85223 2.94698 8.94842 2.94669 9.04929L2.94669 9.05379C2.94726 9.24498 3.02048 9.436 3.16635 9.58187L8.46965 14.8852C8.76255 15.1781 9.23742 15.1781 9.53031 14.8852C9.82321 14.5923 9.82321 14.1174 9.53031 13.8245L5.50734 9.80154H14.3033C14.7175 9.80154 15.0533 9.46576 15.0533 9.05154C15.0533 8.63733 14.7175 8.30154 14.3033 8.30154L5.50734 8.30154L9.53031 4.27857C9.82321 3.98568 9.82321 3.5108 9.53031 3.21791C9.23742 2.92502 8.76255 2.92502 8.46965 3.21791L3.16672 8.52084L3.16476 8.5228C3.09365 8.59434 3.03992 8.67665 3.00359 8.76446Z" fill="white"/>
</svg>
