<svg width="20" height="20" viewBox="0 0 20 20" fill="none" xmlns="http://www.w3.org/2000/svg">
<path d="M5.51025 17.8018C6.83174 18.5639 8.36502 19 10.0001 19C14.9707 19 19 14.9706 19 10C19 5.02944 14.9706 1 10 1C5.02944 1 1 5.02944 1 10C1 11.6351 1.43604 13.1684 2.19819 14.4899L2.19883 14.491C2.2737 14.6208 2.31123 14.6859 2.32816 14.7471C2.34396 14.8043 2.34918 14.8553 2.34513 14.9144C2.34084 14.9772 2.31914 15.0423 2.27629 15.1708L2.27468 15.1757L1.50586 17.4821L1.50526 17.4839C1.34281 17.9713 1.26154 18.2151 1.3194 18.3773C1.36981 18.5187 1.4812 18.63 1.62256 18.6804C1.785 18.7383 2.02953 18.6569 2.51807 18.494L4.82454 17.7252L4.82611 17.7247C4.9568 17.6811 5.02212 17.6594 5.08542 17.655C5.14458 17.651 5.19578 17.6561 5.25293 17.6719C5.31434 17.6888 5.3797 17.7265 5.51025 17.8018Z" stroke="#14181F" stroke-width="2" stroke-linecap="round" stroke-linejoin="round"/>
</svg>
