<svg width="20" height="20" viewBox="0 0 20 20" fill="none" xmlns="http://www.w3.org/2000/svg">
<path d="M1 15L5.76798 9.43738C6.19174 8.94299 6.40371 8.69584 6.65518 8.60669C6.87585 8.52846 7.11686 8.53016 7.33643 8.61145C7.58664 8.70409 7.79506 8.95412 8.21191 9.45435L10.8783 12.6541C11.2674 13.1209 11.462 13.3543 11.6985 13.4481C11.9064 13.5306 12.1357 13.541 12.3501 13.4777C12.5942 13.4057 12.8091 13.1908 13.2388 12.7611L13.7358 12.264C14.1733 11.8265 14.3921 11.6078 14.6397 11.5364C14.8571 11.4736 15.0896 11.4865 15.2988 11.5729C15.537 11.6712 15.7302 11.9129 16.1167 12.396L19 16.0001M19 4.19995V15.8C19 16.9201 19.0002 17.4802 18.7822 17.908C18.5905 18.2844 18.2841 18.5902 17.9078 18.782C17.48 19 16.9203 19 15.8002 19H4.2002C3.08009 19 2.51962 19 2.0918 18.782C1.71547 18.5902 1.40973 18.2844 1.21799 17.908C1 17.4802 1 16.9201 1 15.8V4.19995C1 3.07985 1 2.51986 1.21799 2.09204C1.40973 1.71572 1.71547 1.40973 2.0918 1.21799C2.51962 1 3.08009 1 4.2002 1H15.8002C16.9203 1 17.48 1 17.9078 1.21799C18.2841 1.40973 18.5905 1.71572 18.7822 2.09204C19.0002 2.51986 19 3.07985 19 4.19995ZM13 7C12.4477 7 12 6.55228 12 6C12 5.44772 12.4477 5 13 5C13.5523 5 14 5.44772 14 6C14 6.55228 13.5523 7 13 7Z" stroke="white" stroke-width="2" stroke-linecap="round" stroke-linejoin="round"/>
</svg>
