<svg width="48" height="48" viewBox="0 0 48 48" fill="none" xmlns="http://www.w3.org/2000/svg">
<path d="M34.1904 13.8279C33.6502 13.2724 32.8507 13.0669 32.1051 13.2843L14.7208 18.3385C13.9343 18.5582 13.3768 19.1854 13.2266 19.9812C13.0732 20.7923 13.6091 21.8229 14.3092 22.2534L19.7449 25.5932C20.3024 25.9367 21.022 25.8508 21.4833 25.3855L27.7077 19.1224C28.0211 18.7952 28.5397 18.7952 28.853 19.1224C29.1663 19.4366 29.1663 19.9486 28.853 20.2748L22.6178 26.5379C22.1554 27.0032 22.0689 27.7251 22.4093 28.2871L25.7305 33.7773C26.1195 34.4285 26.7894 34.7992 27.5241 34.7992C27.6105 34.7992 27.7077 34.7992 27.7942 34.7873C28.6369 34.6796 29.3068 34.1024 29.5553 33.287L34.709 15.9261C34.9359 15.1869 34.7306 14.3824 34.1904 13.8279Z" fill="white"/>
<path opacity="0.4" fill-rule="evenodd" clip-rule="evenodd" d="M14.292 29.2973C14.0846 29.2973 13.8771 29.218 13.7194 29.0582C13.4028 28.7396 13.4028 28.2243 13.7194 27.9058L15.1942 26.4207C15.5107 26.1033 16.0239 26.1033 16.3405 26.4207C16.656 26.7392 16.656 27.2556 16.3405 27.5742L14.8646 29.0582C14.7069 29.218 14.4994 29.2973 14.292 29.2973ZM18.3555 30.5936C18.148 30.5936 17.9406 30.5143 17.7828 30.3545C17.4663 30.0359 17.4663 29.5206 17.7828 29.2021L19.2576 27.717C19.5742 27.3996 20.0874 27.3996 20.404 27.717C20.7195 28.0356 20.7195 28.552 20.404 28.8705L18.9281 30.3545C18.7704 30.5143 18.5629 30.5936 18.3555 30.5936ZM18.6295 34.4727C18.7873 34.6325 18.9947 34.7119 19.2022 34.7119C19.4096 34.7119 19.617 34.6325 19.7748 34.4727L21.2507 32.9888C21.5662 32.6702 21.5662 32.1538 21.2507 31.8353C20.9341 31.5178 20.4209 31.5178 20.1043 31.8353L18.6295 33.3203C18.3129 33.6389 18.3129 34.1542 18.6295 34.4727Z" fill="white"/>
</svg>
